#!OML:ASF F:\VICON\USERDATA\INSTALL\rory3\rory3.ASF
:FULLY-SPECIFIED
:DEGREES
53
root 0.32018721901300384 15.896751726510299 -16.965261819117817 26.991432444338905 1.64021985404291 -2.2110553023963853
lfemur -47.90938985829051 7.9217998740245426 -18.914327618944462
ltibia 59.10580587745045
lfoot -16.356554772274777 6.559968173659591
ltoes -23.645358390518997
rfemur -49.75511620053176 -5.7039319640298345 23.28005977164836
rtibia 54.682899924524804
rfoot -28.459491644787036 -10.695391904223154
rtoes -1.4181020009084548
lowerback 9.04042764362221 0.6398682780072712 -1.3971375217006685
upperback -0.6950484751717192 0.6666448823432155 1.893856232500269
thorax -8.845148803047294 0.45740423854921197 2.402086736918501
lowerneck -19.218681411548317 0.14639788174329343 -1.9528299315675093
upperneck 13.103340420516135 0.7011641363213281 -0.6461566944179922
head 7.278190839110093 0.23074673532695728 0.39856450085144446
lclavicle 1.0938309296191826e-15 -2.2152217635629784e-15
lhumerus -31.009160605714097 11.911400480189876 79.96029191358372
lradius 12.47361175964378
lwrist -13.215651046740767
lhand -24.693786310662887 -5.388975902455472
lfingers 7.12502
lthumb 2.2299782770597765 25.037402978390112
rclavicle 1.0938575650056272e-15 -2.215720893620833e-15
rhumerus -25.431249823499332 -17.17270263437661 -77.64115020903704
rradius 20.366367895128406
rwrist 38.50413067702577
rhand -17.123266360235256 -26.454475605507163
rfingers 7.12502
rthumb 8.26949815118417 -56.65992026652337
54
root 0.2525975511985144 15.607951118832714 -16.695790434124376 31.110917563600985 1.4918697918097872 -2.243040725189974
lfemur -52.17020989683914 7.4253301613485485 -18.76332493154766
ltibia 60.799442684642656
lfoot -16.322107186621423 7.121378289566557
ltoes -22.15994408797642
rfemur -55.064348569459746 -4.621361189384883 23.579143573205297
rtibia 57.56857319330806
rfoot -29.311520599839312 -12.37614555134461
rtoes 0.14146713328945548
lowerback 10.04644612339215 1.1685114565074346 -1.903146347710248
upperback -2.2528288971414225 1.3054444871379 1.9591253030859674
thorax -10.851196591829881 0.8346252636608363 2.6863645879197704
lowerneck -21.00776522988397 0.025924890321529268 -1.9679587937937926
upperneck 11.663329136684707 0.5568056900775444 -0.6047823396602843
head 7.076820452350953 0.1816512592588988 0.40076359982972887
lclavicle 1.093693896090557e-15 -2.215420181044569e-15
lhumerus -27.99237725879642 16.41462327803031 79.40676555800542
lradius 11.487020398375462
lwrist -13.696053360092804
lhand -24.916530397279676 -5.858312608993274
lfingers 7.12502
lthumb 1.9609576405634526 24.584672868463286
rclavicle 1.0938441311939442e-15 -2.2157363554807183e-15
rhumerus -25.323128606112718 -17.422956148884737 -77.67798996159964
rradius 20.299294518199133
rwrist 38.48038926819164
rhand -17.228100529449044 -26.274841327346785
rfingers 7.12502
rthumb 8.213688311491527 -56.40809640044177
55
root 0.18228536712995896 15.255385075293331 -16.273346749280588 33.76641143834307 0.9613550287027348 -2.516135169468596
lfemur -55.64366744107848 7.540156479560161 -18.2221339329706
ltibia 62.62770402979375
lfoot -16.464998780419492 7.861260058260709
ltoes -21.06540071078388
rfemur -59.34184843175198 -3.363429542765534 24.074791746532483
rtibia 60.784766136811086
rfoot -30.113851761125858 -14.180478486526098
rtoes 1.4138773854967415
lowerback 11.556325877846499 1.9614952568334094 -2.2970951126461885
upperback -3.200667612743036 2.23542599260574 2.0902183672913326
thorax -12.592805380879833 1.3513070923215433 2.9421249059375665
lowerneck -22.832165711820124 -0.06284214504488791 -1.9939291102407521
upperneck 10.484850492374957 0.47082294275849995 -0.5843440827081221
head 6.951876930807161 0.14670443492978663 0.40068823322432556
lclavicle 1.093522167344828e-15 -2.2156619678978165e-15
lhumerus -23.262752629263577 23.266860034135366 78.73284825268637
lradius 9.455799471943802
lwrist -16.704601385558806
lhand -24.876082327736533 -6.104789718939504
lfingers 7.12502
lthumb 1.9130416081076698 24.24735097710408
rclavicle 1.0938556699564618e-15 -2.2157219538499292e-15
rhumerus -24.606327364934682 -17.28474107355676 -77.87848327820244
rradius 20.4623498175651
rwrist 38.3569877322438
rhand -17.644113562773267 -26.180227791931795
rfingers 7.12502
rthumb 7.874214739878351 -56.234468636257894
56
root 0.15074526409063999 14.931757181515394 -15.513035960742188 33.80525555854465 0.46052086387891844 -3.5797285803654746
lfemur -56.37674974354212 8.668733230546916 -16.909880326255283
ltibia 64.30956361462246
lfoot -17.047010694871865 8.762494177563593
ltoes -20.775586095935374
rfemur -60.248853929813535 -2.7868859950279834 25.202915160013404
rtibia 63.014947970112644
rfoot -31.189379611597467 -16.204108522302114
rtoes 1.2065718333934186
lowerback 12.65329856373063 2.4815411462254966 -1.8025888789537687
upperback -3.3032381969655358 2.8951118056374274 2.5025995345768335
thorax -13.658644294735549 1.7207373787302453 3.0917151464672585
lowerneck -24.27857868162031 -0.07184285974886798 -1.9854354531937153
upperneck 10.124189803481663 0.49799728729638576 -0.6518112726725811
head 6.979795993604796 0.1440113324545229 0.38621133132705787
lclavicle 1.0933155744177666e-15 -2.215946987311204e-15
lhumerus -17.392619182862198 28.52983750609539 78.97362794715083
lradius 7.544810520580155
lwrist -20.456017486829506
lhand -24.520434142636077 -5.882699672618337
lfingers 7.12502
lthumb 2.1763021907052673 24.253205813682804
rclavicle 1.0937787059409636e-15 -2.215818759732158e-15
rhumerus -23.163809499328657 -16.42939590310349 -78.27824652317742
rradius 20.988811501988366
rwrist 38.16526397305066
rhand -18.15037095367819 -26.19465326271511
rfingers 7.12502
rthumb 7.440207972101759 -56.140130569071935
57
root 0.12882048307449168 14.720641946058416 -14.60528958623515 32.8884226923444 -0.1239319839454649 -4.185425952041005
lfemur -54.986008564203026 10.07478775461286 -16.06527513841734
ltibia 65.08220622541153
lfoot -17.865654695934026 10.086396762130914
ltoes -20.748608384021107
rfemur -58.72630374064209 -2.2717840921234647 25.88933850353873
rtibia 63.754304561073106
rfoot -32.72601791844007 -18.254371524488786
rtoes -0.8774617023182945
lowerback 12.907244480006483 2.6864016028948354 -1.974380937816892
upperback -3.4927631418914107 3.1211324649546333 2.8328129569813596
thorax -14.182362398696531 1.9157064313791425 3.4039903454416365
lowerneck -24.95414200122415 -0.047988915923074596 -1.9732841184558918
upperneck 10.343595808064016 0.5420088769163769 -0.6439287189120637
head 7.119418046415742 0.15446963903381677 0.39708879406263176
lclavicle 1.0928495801664036e-15 -2.216550229169815e-15
lhumerus -11.538252815334223 28.921722469008518 79.99817932634276
lradius 8.136206967757795
lwrist -21.962160472280086
lhand -24.110888679693332 -5.661636255759499
lfingers 7.12502
lthumb 2.5231702271671907 24.259488809156963
rclavicle 1.0937182711011337e-15 -2.215895952023638e-15
rhumerus -20.857992204563768 -15.124301623412208 -78.92652781158999
rradius 22.377467484562423
rwrist 38.094986057898375
rhand -18.60060923181743 -26.429030247738176
rfingers 7.12502
rthumb 7.0927236298223555 -56.30509097081705
